<svg xmlns="http://www.w3.org/2000/svg" xmlns:xlink="http://www.w3.org/1999/xlink" width="40" zoomAndPan="magnify" viewBox="0 0 30 30.000001" height="40" preserveAspectRatio="xMidYMid meet" version="1.0"><defs><clipPath id="d5c8deacd8"><path d="M 13.625 21.804688 L 19.445312 21.804688 L 19.445312 27.835938 L 13.625 27.835938 Z M 13.625 21.804688 " clip-rule="nonzero"/></clipPath><clipPath id="fea27055b9"><path d="M 19.425781 25.511719 L 16.609375 27.734375 L 13.703125 24.054688 L 16.519531 21.832031 Z M 19.425781 25.511719 " clip-rule="nonzero"/></clipPath><clipPath id="276e78dd84"><path d="M 0.625 0.832031 L 6.445312 0.832031 L 6.445312 6.835938 L 0.625 6.835938 Z M 0.625 0.832031 " clip-rule="nonzero"/></clipPath><clipPath id="57fd2d6d7e"><path d="M 6.425781 4.511719 L 3.609375 6.734375 L 0.703125 3.054688 L 3.519531 0.832031 Z M 6.425781 4.511719 " clip-rule="nonzero"/></clipPath><clipPath id="44a0177814"><rect x="0" width="7" y="0" height="7"/></clipPath><clipPath id="a7e8bb234c"><path d="M 21.457031 15.558594 L 27.277344 15.558594 L 27.277344 21.59375 L 21.457031 21.59375 Z M 21.457031 15.558594 " clip-rule="nonzero"/></clipPath><clipPath id="a216d0dae7"><path d="M 27.253906 19.339844 L 24.4375 21.5625 L 21.53125 17.878906 L 24.347656 15.65625 Z M 27.253906 19.339844 " clip-rule="nonzero"/></clipPath><clipPath id="93f9e86f33"><path d="M 0.457031 0.5625 L 6.277344 0.5625 L 6.277344 6.59375 L 0.457031 6.59375 Z M 0.457031 0.5625 " clip-rule="nonzero"/></clipPath><clipPath id="5c0269caac"><path d="M 6.253906 4.339844 L 3.4375 6.5625 L 0.53125 2.878906 L 3.347656 0.65625 Z M 6.253906 4.339844 " clip-rule="nonzero"/></clipPath><clipPath id="9217a633e1"><rect x="0" width="7" y="0" height="7"/></clipPath><clipPath id="7f355b51ca"><path d="M 13.625 21.804688 L 19.445312 21.804688 L 19.445312 27.835938 L 13.625 27.835938 Z M 13.625 21.804688 " clip-rule="nonzero"/></clipPath><clipPath id="92422dfa1b"><path d="M 19.425781 25.511719 L 16.609375 27.734375 L 13.703125 24.054688 L 16.519531 21.832031 Z M 19.425781 25.511719 " clip-rule="nonzero"/></clipPath><clipPath id="abbb358e2b"><path d="M 0.625 0.832031 L 6.445312 0.832031 L 6.445312 6.835938 L 0.625 6.835938 Z M 0.625 0.832031 " clip-rule="nonzero"/></clipPath><clipPath id="49498185cc"><path d="M 6.425781 4.511719 L 3.609375 6.734375 L 0.703125 3.054688 L 3.519531 0.832031 Z M 6.425781 4.511719 " clip-rule="nonzero"/></clipPath><clipPath id="da0d0c3c95"><rect x="0" width="7" y="0" height="7"/></clipPath><clipPath id="7cc7784343"><path d="M 21.457031 15.558594 L 27.277344 15.558594 L 27.277344 21.59375 L 21.457031 21.59375 Z M 21.457031 15.558594 " clip-rule="nonzero"/></clipPath><clipPath id="7122bea294"><path d="M 27.253906 19.339844 L 24.4375 21.5625 L 21.53125 17.878906 L 24.347656 15.65625 Z M 27.253906 19.339844 " clip-rule="nonzero"/></clipPath><clipPath id="00b8fb24fc"><path d="M 0.457031 0.5625 L 6.277344 0.5625 L 6.277344 6.59375 L 0.457031 6.59375 Z M 0.457031 0.5625 " clip-rule="nonzero"/></clipPath><clipPath id="70341bbc5f"><path d="M 6.253906 4.339844 L 3.4375 6.5625 L 0.53125 2.878906 L 3.347656 0.65625 Z M 6.253906 4.339844 " clip-rule="nonzero"/></clipPath><clipPath id="0f0a8ca307"><rect x="0" width="7" y="0" height="7"/></clipPath><clipPath id="aebc500434"><path d="M 3.460938 2.011719 L 23.148438 2.011719 L 23.148438 22.546875 L 3.460938 22.546875 Z M 3.460938 2.011719 " clip-rule="nonzero"/></clipPath><clipPath id="f3ac58afb3"><path d="M 15.5625 4.523438 C 13.390625 1.769531 9.398438 1.296875 6.644531 3.46875 L 5.972656 3.996094 C 3.21875 6.171875 2.75 10.160156 4.917969 12.914062 L 12.445312 22.457031 L 15.261719 20.234375 L 13.347656 17.808594 L 12.675781 16.957031 L 11.984375 16.082031 L 7.859375 10.855469 C 6.839844 9.558594 7.058594 7.679688 8.355469 6.65625 L 8.671875 6.40625 C 9.96875 5.382812 11.847656 5.605469 12.871094 6.902344 L 16.570312 11.59375 L 18.363281 13.859375 L 20.277344 16.285156 L 23.09375 14.0625 Z M 15.5625 4.523438 " clip-rule="nonzero"/></clipPath><clipPath id="fc89798347"><path d="M 0.460938 0.0117188 L 20.148438 0.0117188 L 20.148438 20.527344 L 0.460938 20.527344 Z M 0.460938 0.0117188 " clip-rule="nonzero"/></clipPath><clipPath id="bd0cd4a46b"><path d="M 12.5625 2.523438 C 10.390625 -0.230469 6.398438 -0.703125 3.644531 1.46875 L 2.972656 1.996094 C 0.21875 4.171875 -0.25 8.160156 1.917969 10.914062 L 9.445312 20.457031 L 12.261719 18.234375 L 10.347656 15.808594 L 9.675781 14.957031 L 8.984375 14.082031 L 4.859375 8.855469 C 3.839844 7.558594 4.058594 5.679688 5.355469 4.65625 L 5.671875 4.40625 C 6.96875 3.382812 8.847656 3.605469 9.871094 4.902344 L 13.570312 9.59375 L 15.363281 11.859375 L 17.277344 14.285156 L 20.09375 12.0625 Z M 12.5625 2.523438 " clip-rule="nonzero"/></clipPath><clipPath id="753012bd18"><rect x="0" width="21" y="0" height="21"/></clipPath></defs><g clip-path="url(#d5c8deacd8)"><g clip-path="url(#fea27055b9)"><g transform="matrix(1, 0, 0, 1, 13, 21)"><g clip-path="url(#44a0177814)"><g clip-path="url(#276e78dd84)"><g clip-path="url(#57fd2d6d7e)"><rect x="-19.6" width="43.2" fill="#ffffff" height="43.200001" y="-27.6" fill-opacity="1"/></g></g></g></g></g></g><g clip-path="url(#a7e8bb234c)"><g clip-path="url(#a216d0dae7)"><g transform="matrix(1, 0, 0, 1, 21, 15)"><g clip-path="url(#9217a633e1)"><g clip-path="url(#93f9e86f33)"><g clip-path="url(#5c0269caac)"><rect x="-27.6" width="43.2" fill="#ffffff" height="43.200001" y="-21.6" fill-opacity="1"/></g></g></g></g></g></g><g clip-path="url(#7f355b51ca)"><g clip-path="url(#92422dfa1b)"><g transform="matrix(1, 0, 0, 1, 13, 21)"><g clip-path="url(#da0d0c3c95)"><g clip-path="url(#abbb358e2b)"><g clip-path="url(#49498185cc)"><rect x="-19.6" width="43.2" fill="#231f20" height="43.200001" y="-27.6" fill-opacity="1"/></g></g></g></g></g></g><g clip-path="url(#7cc7784343)"><g clip-path="url(#7122bea294)"><g transform="matrix(1, 0, 0, 1, 21, 15)"><g clip-path="url(#0f0a8ca307)"><g clip-path="url(#00b8fb24fc)"><g clip-path="url(#70341bbc5f)"><rect x="-27.6" width="43.2" fill="#231f20" height="43.200001" y="-21.6" fill-opacity="1"/></g></g></g></g></g></g><g clip-path="url(#aebc500434)"><g clip-path="url(#f3ac58afb3)"><g transform="matrix(1, 0, 0, 1, 3, 2)"><g clip-path="url(#753012bd18)"><g clip-path="url(#fc89798347)"><g clip-path="url(#bd0cd4a46b)"><rect x="-9.6" width="43.2" fill="#e63f52" height="43.200001" y="-8.6" fill-opacity="1"/></g></g></g></g></g></g></svg>