<svg xmlns="http://www.w3.org/2000/svg" xmlns:xlink="http://www.w3.org/1999/xlink" width="1000" zoomAndPan="magnify" viewBox="0 0 750 187.499995" height="250" preserveAspectRatio="xMidYMid meet" version="1.0"><defs><clipPath id="05bc3e5bf8"><path d="M 54 95.226562 L 79.332031 95.226562 L 79.332031 121.488281 L 54 121.488281 Z M 54 95.226562 " clip-rule="nonzero"/></clipPath><clipPath id="55409b7cab"><path d="M 79.242188 111.371094 L 66.984375 121.046875 L 54.339844 105.015625 L 66.597656 95.351562 Z M 79.242188 111.371094 " clip-rule="nonzero"/></clipPath><clipPath id="2480cb8120"><path d="M 0.125 0.226562 L 25.257812 0.226562 L 25.257812 26.277344 L 0.125 26.277344 Z M 0.125 0.226562 " clip-rule="nonzero"/></clipPath><clipPath id="cb1ff4d0bf"><path d="M 25.242188 16.371094 L 12.984375 26.046875 L 0.339844 10.015625 L 12.597656 0.351562 Z M 25.242188 16.371094 " clip-rule="nonzero"/></clipPath><clipPath id="56ad01adaf"><rect x="0" width="26" y="0" height="27"/></clipPath><clipPath id="91992a7618"><path d="M 88.085938 68.042969 L 113.425781 68.042969 L 113.425781 94.304688 L 88.085938 94.304688 Z M 88.085938 68.042969 " clip-rule="nonzero"/></clipPath><clipPath id="42c46aa0d7"><path d="M 113.316406 84.5 L 101.054688 94.175781 L 88.410156 78.144531 L 100.671875 68.46875 Z M 113.316406 84.5 " clip-rule="nonzero"/></clipPath><clipPath id="8f2947a6c1"><path d="M 0.355469 0.378906 L 25.425781 0.378906 L 25.425781 26.230469 L 0.355469 26.230469 Z M 0.355469 0.378906 " clip-rule="nonzero"/></clipPath><clipPath id="b86a531a8b"><path d="M 25.316406 16.5 L 13.054688 26.175781 L 0.410156 10.144531 L 12.671875 0.46875 Z M 25.316406 16.5 " clip-rule="nonzero"/></clipPath><clipPath id="2b62982dc0"><rect x="0" width="26" y="0" height="27"/></clipPath><clipPath id="2465151b66"><path d="M 54 95.226562 L 79.332031 95.226562 L 79.332031 121.488281 L 54 121.488281 Z M 54 95.226562 " clip-rule="nonzero"/></clipPath><clipPath id="37588318be"><path d="M 79.242188 111.371094 L 66.984375 121.046875 L 54.339844 105.015625 L 66.597656 95.351562 Z M 79.242188 111.371094 " clip-rule="nonzero"/></clipPath><clipPath id="ed2bb2cbb0"><path d="M 0.125 0.226562 L 25.257812 0.226562 L 25.257812 26.277344 L 0.125 26.277344 Z M 0.125 0.226562 " clip-rule="nonzero"/></clipPath><clipPath id="3a2e716065"><path d="M 25.242188 16.371094 L 12.984375 26.046875 L 0.339844 10.015625 L 12.597656 0.351562 Z M 25.242188 16.371094 " clip-rule="nonzero"/></clipPath><clipPath id="45c764f827"><rect x="0" width="26" y="0" height="27"/></clipPath><clipPath id="98764c0f20"><path d="M 88.085938 68.042969 L 113.425781 68.042969 L 113.425781 94.304688 L 88.085938 94.304688 Z M 88.085938 68.042969 " clip-rule="nonzero"/></clipPath><clipPath id="3f3eded19c"><path d="M 113.316406 84.5 L 101.054688 94.175781 L 88.410156 78.144531 L 100.671875 68.46875 Z M 113.316406 84.5 " clip-rule="nonzero"/></clipPath><clipPath id="4a78375f3c"><path d="M 0.355469 0.378906 L 25.425781 0.378906 L 25.425781 26.230469 L 0.355469 26.230469 Z M 0.355469 0.378906 " clip-rule="nonzero"/></clipPath><clipPath id="f83f18b3ea"><path d="M 25.316406 16.5 L 13.054688 26.175781 L 0.410156 10.144531 L 12.671875 0.46875 Z M 25.316406 16.5 " clip-rule="nonzero"/></clipPath><clipPath id="a494479a1f"><rect x="0" width="26" y="0" height="27"/></clipPath><clipPath id="8cbbc54601"><path d="M 10 9.066406 L 95.457031 9.066406 L 95.457031 98.453125 L 10 98.453125 Z M 10 9.066406 " clip-rule="nonzero"/></clipPath><clipPath id="1a21b84b8e"><path d="M 62.433594 20 C 52.984375 8.011719 35.597656 5.957031 23.605469 15.40625 L 20.683594 17.710938 C 8.703125 27.171875 6.648438 44.546875 16.097656 56.535156 L 48.863281 98.070312 L 61.125 88.394531 L 52.792969 77.839844 L 49.855469 74.125 L 46.851562 70.308594 L 28.902344 47.558594 C 24.453125 41.914062 25.414062 33.742188 31.058594 29.28125 L 32.4375 28.199219 C 38.082031 23.75 46.265625 24.710938 50.714844 30.355469 L 66.824219 50.777344 L 74.613281 60.644531 L 82.945312 71.199219 L 95.207031 61.523438 Z M 62.433594 20 " clip-rule="nonzero"/></clipPath><clipPath id="f7e6777755"><path d="M 0 0.0664062 L 85.296875 0.0664062 L 85.296875 89.296875 L 0 89.296875 Z M 0 0.0664062 " clip-rule="nonzero"/></clipPath><clipPath id="7688e4d00a"><path d="M 52.433594 11 C 42.984375 -0.988281 25.597656 -3.042969 13.605469 6.40625 L 10.683594 8.710938 C -1.296875 18.171875 -3.351562 35.546875 6.097656 47.535156 L 38.863281 89.070312 L 51.125 79.394531 L 42.792969 68.839844 L 39.855469 65.125 L 36.851562 61.308594 L 18.902344 38.558594 C 14.453125 32.914062 15.414062 24.742188 21.058594 20.28125 L 22.4375 19.199219 C 28.082031 14.75 36.265625 15.710938 40.714844 21.355469 L 56.824219 41.777344 L 64.613281 51.644531 L 72.945312 62.199219 L 85.207031 52.523438 Z M 52.433594 11 " clip-rule="nonzero"/></clipPath><clipPath id="0f80a5f06a"><rect x="0" width="86" y="0" height="90"/></clipPath><clipPath id="3505611140"><path d="M 216.019531 87.050781 L 227.488281 87.050781 L 227.488281 102 L 216.019531 102 Z M 216.019531 87.050781 " clip-rule="nonzero"/></clipPath><clipPath id="1b293cf273"><path d="M 227.273438 101.796875 L 216.203125 101.796875 L 216.203125 87.300781 L 227.285156 87.300781 Z M 227.273438 101.796875 " clip-rule="nonzero"/></clipPath><clipPath id="76ff3c3930"><path d="M 0.171875 0.289062 L 11.421875 0.289062 L 11.421875 14.886719 L 0.171875 14.886719 Z M 0.171875 0.289062 " clip-rule="nonzero"/></clipPath><clipPath id="86437c2f7d"><path d="M 11.273438 14.796875 L 0.203125 14.796875 L 0.203125 0.300781 L 11.285156 0.300781 Z M 11.273438 14.796875 " clip-rule="nonzero"/></clipPath><clipPath id="1c9e6e92ee"><rect x="0" width="12" y="0" height="15"/></clipPath><clipPath id="c171f6059f"><path d="M 187.347656 87.050781 L 198.816406 87.050781 L 198.816406 102 L 187.347656 102 Z M 187.347656 87.050781 " clip-rule="nonzero"/></clipPath><clipPath id="3684255989"><path d="M 198.613281 101.796875 L 187.542969 101.796875 L 187.542969 87.300781 L 198.628906 87.300781 Z M 198.613281 101.796875 " clip-rule="nonzero"/></clipPath><clipPath id="0d668434b8"><path d="M 0.449219 0.289062 L 11.699219 0.289062 L 11.699219 14.886719 L 0.449219 14.886719 Z M 0.449219 0.289062 " clip-rule="nonzero"/></clipPath><clipPath id="e4cad5425d"><path d="M 11.613281 14.796875 L 0.542969 14.796875 L 0.542969 0.300781 L 11.628906 0.300781 Z M 11.613281 14.796875 " clip-rule="nonzero"/></clipPath><clipPath id="d1076e9667"><rect x="0" width="12" y="0" height="15"/></clipPath><clipPath id="a1d3b19039"><path d="M 158.886719 87.300781 L 169.96875 87.300781 L 169.96875 101.796875 L 158.886719 101.796875 Z M 158.886719 87.300781 " clip-rule="nonzero"/></clipPath><clipPath id="17dae06396"><path d="M 0.886719 0.300781 L 11.96875 0.300781 L 11.96875 14.796875 L 0.886719 14.796875 Z M 0.886719 0.300781 " clip-rule="nonzero"/></clipPath><clipPath id="f573eeff8b"><rect x="0" width="12" y="0" height="15"/></clipPath><clipPath id="58bffe93b7"><path d="M 158.675781 23.652344 L 227.488281 23.652344 L 227.488281 81.316406 L 158.675781 81.316406 Z M 158.675781 23.652344 " clip-rule="nonzero"/></clipPath><clipPath id="87ee7adfe0"><path d="M 227.273438 43.476562 C 227.273438 32.644531 219.007812 23.863281 208.816406 23.863281 L 206.328125 23.863281 C 201.128906 23.863281 196.441406 26.15625 193.085938 29.839844 C 189.730469 26.15625 185.03125 23.863281 179.828125 23.863281 L 177.339844 23.863281 C 167.152344 23.863281 158.886719 32.644531 158.886719 43.476562 L 158.886719 81.023438 L 169.3125 81.023438 L 169.3125 44.109375 C 169.3125 39.003906 173.207031 34.867188 178 34.867188 L 179.171875 34.867188 C 183.976562 34.867188 187.859375 39.003906 187.859375 44.097656 L 187.859375 81.035156 L 198.285156 81.035156 L 198.285156 44.109375 C 198.285156 39.003906 202.183594 34.867188 206.972656 34.867188 L 208.144531 34.867188 C 212.949219 34.867188 216.832031 39.003906 216.832031 44.109375 L 216.832031 81.035156 L 227.261719 81.035156 Z M 227.273438 43.476562 " clip-rule="nonzero"/></clipPath><clipPath id="2d27a08baa"><path d="M 0.726562 0.855469 L 69.421875 0.855469 L 69.421875 58.0625 L 0.726562 58.0625 Z M 0.726562 0.855469 " clip-rule="nonzero"/></clipPath><clipPath id="8363fda4a3"><path d="M 69.273438 20.476562 C 69.273438 9.644531 61.007812 0.863281 50.816406 0.863281 L 48.328125 0.863281 C 43.128906 0.863281 38.441406 3.15625 35.085938 6.839844 C 31.730469 3.15625 27.03125 0.863281 21.828125 0.863281 L 19.339844 0.863281 C 9.152344 0.863281 0.886719 9.644531 0.886719 20.476562 L 0.886719 58.023438 L 11.3125 58.023438 L 11.3125 21.109375 C 11.3125 16.003906 15.207031 11.867188 20 11.867188 L 21.171875 11.867188 C 25.976562 11.867188 29.859375 16.003906 29.859375 21.097656 L 29.859375 58.035156 L 40.285156 58.035156 L 40.285156 21.109375 C 40.285156 16.003906 44.183594 11.867188 48.972656 11.867188 L 50.144531 11.867188 C 54.949219 11.867188 58.832031 16.003906 58.832031 21.109375 L 58.832031 58.035156 L 69.261719 58.035156 Z M 69.273438 20.476562 " clip-rule="nonzero"/></clipPath><clipPath id="c73c9d176d"><rect x="0" width="70" y="0" height="59"/></clipPath><clipPath id="20c2ea6131"><path d="M 257.355469 23.734375 L 299.5 23.734375 L 299.5 81.140625 L 257.355469 81.140625 Z M 257.355469 23.734375 " clip-rule="nonzero"/></clipPath><clipPath id="20b76daf8a"><path d="M 288.28125 71.480469 L 268.574219 71.480469 L 268.574219 44.109375 C 268.574219 39.015625 272.707031 34.871094 277.8125 34.871094 L 279.050781 34.871094 C 284.144531 34.871094 288.292969 39.003906 288.292969 44.109375 Z M 279.75 23.863281 L 277.105469 23.863281 C 266.269531 23.863281 257.488281 32.644531 257.488281 43.480469 L 257.488281 81.023438 L 299.363281 81.023438 L 299.363281 43.480469 C 299.363281 32.644531 290.582031 23.863281 279.75 23.863281 " clip-rule="nonzero"/></clipPath><clipPath id="0fc4ff2dda"><path d="M 0.355469 0.855469 L 42.472656 0.855469 L 42.472656 58.0625 L 0.355469 58.0625 Z M 0.355469 0.855469 " clip-rule="nonzero"/></clipPath><clipPath id="dbf0438627"><path d="M 31.28125 48.480469 L 11.574219 48.480469 L 11.574219 21.109375 C 11.574219 16.015625 15.707031 11.871094 20.8125 11.871094 L 22.050781 11.871094 C 27.144531 11.871094 31.292969 16.003906 31.292969 21.109375 Z M 22.75 0.863281 L 20.105469 0.863281 C 9.269531 0.863281 0.488281 9.644531 0.488281 20.480469 L 0.488281 58.023438 L 42.363281 58.023438 L 42.363281 20.480469 C 42.363281 9.644531 33.582031 0.863281 22.75 0.863281 " clip-rule="nonzero"/></clipPath><clipPath id="24cdd3ddd4"><rect x="0" width="43" y="0" height="59"/></clipPath><clipPath id="75a463227f"><path d="M 257.488281 87.300781 L 268.574219 87.300781 L 268.574219 101.796875 L 257.488281 101.796875 Z M 257.488281 87.300781 " clip-rule="nonzero"/></clipPath><clipPath id="5e121e5dc8"><path d="M 0.488281 0.300781 L 11.574219 0.300781 L 11.574219 14.796875 L 0.488281 14.796875 Z M 0.488281 0.300781 " clip-rule="nonzero"/></clipPath><clipPath id="fc5c7f9e2c"><rect x="0" width="12" y="0" height="15"/></clipPath><clipPath id="e8a8ee1551"><path d="M 288.28125 87.300781 L 299.363281 87.300781 L 299.363281 101.796875 L 288.28125 101.796875 Z M 288.28125 87.300781 " clip-rule="nonzero"/></clipPath><clipPath id="1a439ec522"><path d="M 0.28125 0.300781 L 11.363281 0.300781 L 11.363281 14.796875 L 0.28125 14.796875 Z M 0.28125 0.300781 " clip-rule="nonzero"/></clipPath><clipPath id="5db782b667"><rect x="0" width="12" y="0" height="15"/></clipPath><clipPath id="33406493e8"><path d="M 348.65625 71.464844 L 369.296875 71.464844 L 369.296875 81.140625 L 348.65625 81.140625 Z M 348.65625 71.464844 " clip-rule="nonzero"/></clipPath><clipPath id="e7cff8b89b"><path d="M 369.164062 81.023438 L 369.164062 71.492188 L 348.851562 71.492188 L 348.851562 81.035156 Z M 369.164062 81.023438 " clip-rule="nonzero"/></clipPath><clipPath id="be2b29b373"><path d="M 0.777344 0.488281 L 21.296875 0.488281 L 21.296875 10.0625 L 0.777344 10.0625 Z M 0.777344 0.488281 " clip-rule="nonzero"/></clipPath><clipPath id="822d138fd1"><path d="M 21.164062 10.023438 L 21.164062 0.492188 L 0.851562 0.492188 L 0.851562 10.035156 Z M 21.164062 10.023438 " clip-rule="nonzero"/></clipPath><clipPath id="329ae4f3ab"><rect x="0" width="22" y="0" height="11"/></clipPath><clipPath id="ebcb9fc007"><path d="M 327.15625 23.734375 L 369.296875 23.734375 L 369.296875 81.140625 L 327.15625 81.140625 Z M 327.15625 23.734375 " clip-rule="nonzero"/></clipPath><clipPath id="c0bb69c22e"><path d="M 338.371094 71.480469 L 338.371094 44.109375 C 338.371094 39.015625 342.503906 34.871094 347.613281 34.871094 L 348.851562 34.871094 C 353.957031 34.871094 358.089844 39.003906 358.089844 44.109375 L 358.089844 47.890625 L 369.175781 47.890625 L 369.175781 43.480469 C 369.175781 32.644531 360.394531 23.863281 349.5625 23.863281 L 346.902344 23.863281 C 336.066406 23.863281 327.289062 32.644531 327.289062 43.480469 L 327.289062 81.023438 L 338.371094 81.023438 Z M 338.371094 71.480469 " clip-rule="nonzero"/></clipPath><clipPath id="91c53ddc60"><path d="M 0.238281 0.855469 L 42.296875 0.855469 L 42.296875 58.0625 L 0.238281 58.0625 Z M 0.238281 0.855469 " clip-rule="nonzero"/></clipPath><clipPath id="45cb4fd77a"><path d="M 11.371094 48.480469 L 11.371094 21.109375 C 11.371094 16.015625 15.503906 11.871094 20.613281 11.871094 L 21.851562 11.871094 C 26.957031 11.871094 31.089844 16.003906 31.089844 21.109375 L 31.089844 24.890625 L 42.175781 24.890625 L 42.175781 20.480469 C 42.175781 9.644531 33.394531 0.863281 22.5625 0.863281 L 19.902344 0.863281 C 9.066406 0.863281 0.289062 9.644531 0.289062 20.480469 L 0.289062 58.023438 L 11.371094 58.023438 Z M 11.371094 48.480469 " clip-rule="nonzero"/></clipPath><clipPath id="32192885d4"><rect x="0" width="43" y="0" height="59"/></clipPath><clipPath id="2135fac7c0"><path d="M 348.65625 71.464844 L 369.296875 71.464844 L 369.296875 81.140625 L 348.65625 81.140625 Z M 348.65625 71.464844 " clip-rule="nonzero"/></clipPath><clipPath id="d6299b54b8"><path d="M 369.164062 81.023438 L 369.164062 71.492188 L 348.851562 71.492188 L 348.851562 81.035156 Z M 369.164062 81.023438 " clip-rule="nonzero"/></clipPath><clipPath id="c1185c7f8d"><path d="M 0.777344 0.488281 L 21.296875 0.488281 L 21.296875 10.0625 L 0.777344 10.0625 Z M 0.777344 0.488281 " clip-rule="nonzero"/></clipPath><clipPath id="68d713343d"><path d="M 21.164062 10.023438 L 21.164062 0.492188 L 0.851562 0.492188 L 0.851562 10.035156 Z M 21.164062 10.023438 " clip-rule="nonzero"/></clipPath><clipPath id="0b0f67fb46"><rect x="0" width="22" y="0" height="11"/></clipPath><clipPath id="43981fdf80"><path d="M 327.15625 23.734375 L 369.296875 23.734375 L 369.296875 81.140625 L 327.15625 81.140625 Z M 327.15625 23.734375 " clip-rule="nonzero"/></clipPath><clipPath id="089c00080c"><path d="M 338.371094 71.480469 L 338.371094 44.109375 C 338.371094 39.015625 342.503906 34.871094 347.613281 34.871094 L 348.851562 34.871094 C 353.957031 34.871094 358.089844 39.003906 358.089844 44.109375 L 358.089844 47.890625 L 369.175781 47.890625 L 369.175781 43.480469 C 369.175781 32.644531 360.394531 23.863281 349.5625 23.863281 L 346.902344 23.863281 C 336.066406 23.863281 327.289062 32.644531 327.289062 43.480469 L 327.289062 81.023438 L 338.371094 81.023438 Z M 338.371094 71.480469 " clip-rule="nonzero"/></clipPath><clipPath id="5ded6fbdbd"><path d="M 0.238281 0.855469 L 42.296875 0.855469 L 42.296875 58.0625 L 0.238281 58.0625 Z M 0.238281 0.855469 " clip-rule="nonzero"/></clipPath><clipPath id="11edf69377"><path d="M 11.371094 48.480469 L 11.371094 21.109375 C 11.371094 16.015625 15.503906 11.871094 20.613281 11.871094 L 21.851562 11.871094 C 26.957031 11.871094 31.089844 16.003906 31.089844 21.109375 L 31.089844 24.890625 L 42.175781 24.890625 L 42.175781 20.480469 C 42.175781 9.644531 33.394531 0.863281 22.5625 0.863281 L 19.902344 0.863281 C 9.066406 0.863281 0.289062 9.644531 0.289062 20.480469 L 0.289062 58.023438 L 11.371094 58.023438 Z M 11.371094 48.480469 " clip-rule="nonzero"/></clipPath><clipPath id="c39cc524af"><rect x="0" width="43" y="0" height="59"/></clipPath><clipPath id="45b39b29e8"><path d="M 327.371094 85.871094 L 369.082031 85.871094 L 369.082031 103.289062 L 327.371094 103.289062 Z M 327.371094 85.871094 " clip-rule="nonzero"/></clipPath><clipPath id="b4754e7d87"><path d="M 348.851562 92.121094 L 347.601562 92.121094 C 343.570312 92.121094 340.164062 89.539062 338.898438 85.945312 L 327.457031 85.945312 C 328.65625 95.636719 336.898438 103.125 346.914062 103.125 L 349.5625 103.125 C 359.566406 103.125 367.808594 95.621094 369.019531 85.945312 L 357.566406 85.945312 C 356.300781 89.539062 352.890625 92.121094 348.863281 92.121094 " clip-rule="nonzero"/></clipPath><clipPath id="3e358b4f74"><path d="M 0.371094 0.871094 L 42.082031 0.871094 L 42.082031 18.289062 L 0.371094 18.289062 Z M 0.371094 0.871094 " clip-rule="nonzero"/></clipPath><clipPath id="0d99d38bb7"><path d="M 21.851562 7.121094 L 20.601562 7.121094 C 16.570312 7.121094 13.164062 4.539062 11.898438 0.945312 L 0.457031 0.945312 C 1.65625 10.636719 9.898438 18.125 19.914062 18.125 L 22.5625 18.125 C 32.566406 18.125 40.808594 10.621094 42.019531 0.945312 L 30.566406 0.945312 C 29.300781 4.539062 25.890625 7.121094 21.863281 7.121094 " clip-rule="nonzero"/></clipPath><clipPath id="3f934f03bf"><rect x="0" width="43" y="0" height="19"/></clipPath><clipPath id="bac6f1ac62"><path d="M 397.261719 87.300781 L 408.34375 87.300781 L 408.34375 101.796875 L 397.261719 101.796875 Z M 397.261719 87.300781 " clip-rule="nonzero"/></clipPath><clipPath id="301e7b7936"><path d="M 0.261719 0.300781 L 11.34375 0.300781 L 11.34375 14.796875 L 0.261719 14.796875 Z M 0.261719 0.300781 " clip-rule="nonzero"/></clipPath><clipPath id="b728cdff70"><rect x="0" width="12" y="0" height="15"/></clipPath><clipPath id="356e78df3d"><path d="M 428.050781 87.300781 L 439.136719 87.300781 L 439.136719 101.796875 L 428.050781 101.796875 Z M 428.050781 87.300781 " clip-rule="nonzero"/></clipPath><clipPath id="74c7e0964d"><path d="M 0.0507812 0.300781 L 11.136719 0.300781 L 11.136719 14.796875 L 0.0507812 14.796875 Z M 0.0507812 0.300781 " clip-rule="nonzero"/></clipPath><clipPath id="3deb2cb1fc"><rect x="0" width="12" y="0" height="15"/></clipPath><clipPath id="dd09ca053c"><path d="M 397.261719 87.300781 L 408.34375 87.300781 L 408.34375 101.796875 L 397.261719 101.796875 Z M 397.261719 87.300781 " clip-rule="nonzero"/></clipPath><clipPath id="67436e2ecf"><path d="M 0.261719 0.300781 L 11.34375 0.300781 L 11.34375 14.796875 L 0.261719 14.796875 Z M 0.261719 0.300781 " clip-rule="nonzero"/></clipPath><clipPath id="7cd7d163fb"><rect x="0" width="12" y="0" height="15"/></clipPath><clipPath id="a516ce0d28"><path d="M 428.050781 87.300781 L 439.136719 87.300781 L 439.136719 101.796875 L 428.050781 101.796875 Z M 428.050781 87.300781 " clip-rule="nonzero"/></clipPath><clipPath id="f1fa2810bf"><path d="M 0.0507812 0.300781 L 11.136719 0.300781 L 11.136719 14.796875 L 0.0507812 14.796875 Z M 0.0507812 0.300781 " clip-rule="nonzero"/></clipPath><clipPath id="f7f868c328"><rect x="0" width="12" y="0" height="15"/></clipPath><clipPath id="df7e65cbe5"><path d="M 397.128906 23.730469 L 439.269531 23.730469 L 439.269531 81.140625 L 397.128906 81.140625 Z M 397.128906 23.730469 " clip-rule="nonzero"/></clipPath><clipPath id="c7572122b0"><path d="M 439.136719 43.476562 C 439.136719 32.644531 430.355469 23.863281 419.519531 23.863281 L 416.875 23.863281 C 406.039062 23.863281 397.261719 32.644531 397.261719 43.476562 L 397.261719 81.023438 L 408.34375 81.023438 L 408.34375 44.109375 C 408.34375 39.003906 412.476562 34.867188 417.585938 34.867188 L 418.835938 34.867188 C 423.945312 34.867188 428.0625 39.003906 428.0625 44.109375 L 428.0625 81.035156 L 439.148438 81.035156 Z M 439.136719 43.476562 " clip-rule="nonzero"/></clipPath><clipPath id="acd68e3152"><path d="M 0.128906 0.855469 L 42.257812 0.855469 L 42.257812 58.0625 L 0.128906 58.0625 Z M 0.128906 0.855469 " clip-rule="nonzero"/></clipPath><clipPath id="85695a0b0c"><path d="M 42.136719 20.476562 C 42.136719 9.644531 33.355469 0.863281 22.519531 0.863281 L 19.875 0.863281 C 9.039062 0.863281 0.261719 9.644531 0.261719 20.476562 L 0.261719 58.023438 L 11.34375 58.023438 L 11.34375 21.109375 C 11.34375 16.003906 15.476562 11.867188 20.585938 11.867188 L 21.835938 11.867188 C 26.945312 11.867188 31.0625 16.003906 31.0625 21.109375 L 31.0625 58.035156 L 42.148438 58.035156 Z M 42.136719 20.476562 " clip-rule="nonzero"/></clipPath><clipPath id="7815627ac5"><rect x="0" width="43" y="0" height="59"/></clipPath><clipPath id="a117277b02"><path d="M 467.066406 23.808594 L 503.140625 23.808594 L 503.140625 81.183594 L 467.066406 81.183594 Z M 467.066406 23.808594 " clip-rule="nonzero"/></clipPath><clipPath id="4d3b161adb"><path d="M 478.207031 64.6875 L 478.207031 44.109375 C 478.207031 39.015625 482.339844 34.871094 487.449219 34.871094 L 488.6875 34.871094 L 503.085938 34.910156 L 503.085938 23.863281 L 486.738281 23.863281 C 475.902344 23.863281 467.125 32.644531 467.125 43.480469 L 467.125 81.023438 L 500.019531 81.023438 L 500.019531 70.597656 L 478.207031 70.597656 Z M 478.207031 64.6875 " clip-rule="nonzero"/></clipPath><clipPath id="03fab1869f"><path d="M 0.0664062 0.855469 L 36.140625 0.855469 L 36.140625 58.0625 L 0.0664062 58.0625 Z M 0.0664062 0.855469 " clip-rule="nonzero"/></clipPath><clipPath id="c61ed2daf7"><path d="M 11.207031 41.6875 L 11.207031 21.109375 C 11.207031 16.015625 15.339844 11.871094 20.449219 11.871094 L 21.6875 11.871094 L 36.085938 11.910156 L 36.085938 0.863281 L 19.738281 0.863281 C 8.902344 0.863281 0.125 9.644531 0.125 20.480469 L 0.125 58.023438 L 33.019531 58.023438 L 33.019531 47.597656 L 11.207031 47.597656 Z M 11.207031 41.6875 " clip-rule="nonzero"/></clipPath><clipPath id="be7a331bf4"><rect x="0" width="37" y="0" height="59"/></clipPath><clipPath id="a7639048ea"><path d="M 467.449219 86.171875 L 503.140625 86.171875 L 503.140625 101.910156 L 467.449219 101.910156 Z M 467.449219 86.171875 " clip-rule="nonzero"/></clipPath><clipPath id="b0cb9cf4ed"><path d="M 488.6875 90.882812 L 487.433594 90.882812 C 484.011719 90.882812 481.023438 89.015625 479.429688 86.234375 L 467.519531 86.234375 C 469.347656 95.175781 477.257812 101.902344 486.738281 101.902344 L 503.085938 101.902344 L 503.085938 90.84375 Z M 488.6875 90.882812 " clip-rule="nonzero"/></clipPath><clipPath id="fb8e61dc45"><path d="M 0.503906 0.171875 L 36.140625 0.171875 L 36.140625 15.910156 L 0.503906 15.910156 Z M 0.503906 0.171875 " clip-rule="nonzero"/></clipPath><clipPath id="2444eac021"><path d="M 21.6875 4.882812 L 20.433594 4.882812 C 17.011719 4.882812 14.023438 3.015625 12.429688 0.234375 L 0.519531 0.234375 C 2.347656 9.175781 10.257812 15.902344 19.738281 15.902344 L 36.085938 15.902344 L 36.085938 4.84375 Z M 21.6875 4.882812 " clip-rule="nonzero"/></clipPath><clipPath id="188f9cd11b"><rect x="0" width="37" y="0" height="16"/></clipPath><clipPath id="3d59bac208"><path d="M 539.003906 87.300781 L 550.085938 87.300781 L 550.085938 101.78125 L 539.003906 101.78125 Z M 539.003906 87.300781 " clip-rule="nonzero"/></clipPath><clipPath id="cae7d420f0"><path d="M 0.00390625 0.300781 L 11.085938 0.300781 L 11.085938 14.78125 L 0.00390625 14.78125 Z M 0.00390625 0.300781 " clip-rule="nonzero"/></clipPath><clipPath id="e579573c7a"><rect x="0" width="12" y="0" height="15"/></clipPath><clipPath id="339bc06b91"><path d="M 524.46875 25.984375 L 564.621094 25.984375 L 564.621094 35.792969 L 524.46875 35.792969 Z M 539.003906 35.792969 L 550.085938 35.792969 L 550.085938 81.023438 L 539.003906 81.023438 Z M 539.003906 35.792969 " clip-rule="nonzero"/></clipPath><clipPath id="6aac4fc2bd"><path d="M 0.46875 0.984375 L 40.621094 0.984375 L 40.621094 10.792969 L 0.46875 10.792969 Z M 15.003906 10.792969 L 26.085938 10.792969 L 26.085938 56.023438 L 15.003906 56.023438 Z M 15.003906 10.792969 " clip-rule="nonzero"/></clipPath><clipPath id="879dbf04b7"><rect x="0" width="41" y="0" height="57"/></clipPath><clipPath id="ee876561ce"><path d="M 591.375 87.304688 L 602.457031 87.304688 L 602.457031 101.78125 L 591.375 101.78125 Z M 591.375 87.304688 " clip-rule="nonzero"/></clipPath><clipPath id="100817b42a"><path d="M 0.375 0.304688 L 11.457031 0.304688 L 11.457031 14.78125 L 0.375 14.78125 Z M 0.375 0.304688 " clip-rule="nonzero"/></clipPath><clipPath id="7cb9e0a8ee"><rect x="0" width="12" y="0" height="15"/></clipPath><clipPath id="ee46e54bc5"><path d="M 591.375 25.984375 L 602.457031 25.984375 L 602.457031 81.023438 L 591.375 81.023438 Z M 591.375 25.984375 " clip-rule="nonzero"/></clipPath><clipPath id="cd1cc36af8"><path d="M 0.375 0.984375 L 11.457031 0.984375 L 11.457031 56.023438 L 0.375 56.023438 Z M 0.375 0.984375 " clip-rule="nonzero"/></clipPath><clipPath id="02bcbd51c8"><rect x="0" width="12" y="0" height="57"/></clipPath><clipPath id="c7d5edd045"><path d="M 632.402344 23.734375 L 674.542969 23.734375 L 674.542969 81.144531 L 632.402344 81.144531 Z M 632.402344 23.734375 " clip-rule="nonzero"/></clipPath><clipPath id="fc98c7f82f"><path d="M 663.335938 71.480469 L 643.617188 71.480469 L 643.617188 44.109375 C 643.617188 39.015625 647.75 34.871094 652.859375 34.871094 L 654.109375 34.871094 C 659.203125 34.871094 663.351562 39.003906 663.351562 44.109375 Z M 654.792969 23.863281 L 652.148438 23.863281 C 641.3125 23.863281 632.53125 32.644531 632.53125 43.480469 L 632.53125 81.023438 L 674.40625 81.023438 L 674.40625 43.480469 C 674.40625 32.644531 665.628906 23.863281 654.792969 23.863281 " clip-rule="nonzero"/></clipPath><clipPath id="e44cb6e5ab"><path d="M 0.421875 0.855469 L 42.542969 0.855469 L 42.542969 58.0625 L 0.421875 58.0625 Z M 0.421875 0.855469 " clip-rule="nonzero"/></clipPath><clipPath id="fdf696e4be"><path d="M 31.335938 48.480469 L 11.617188 48.480469 L 11.617188 21.109375 C 11.617188 16.015625 15.75 11.871094 20.859375 11.871094 L 22.109375 11.871094 C 27.203125 11.871094 31.351562 16.003906 31.351562 21.109375 Z M 22.792969 0.863281 L 20.148438 0.863281 C 9.3125 0.863281 0.53125 9.644531 0.53125 20.480469 L 0.53125 58.023438 L 42.40625 58.023438 L 42.40625 20.480469 C 42.40625 9.644531 33.628906 0.863281 22.792969 0.863281 " clip-rule="nonzero"/></clipPath><clipPath id="b2d274ac9f"><rect x="0" width="43" y="0" height="59"/></clipPath><clipPath id="6a0b62c17e"><path d="M 632.53125 87.300781 L 643.617188 87.300781 L 643.617188 101.796875 L 632.53125 101.796875 Z M 632.53125 87.300781 " clip-rule="nonzero"/></clipPath><clipPath id="46218d093d"><path d="M 0.53125 0.300781 L 11.617188 0.300781 L 11.617188 14.796875 L 0.53125 14.796875 Z M 0.53125 0.300781 " clip-rule="nonzero"/></clipPath><clipPath id="873cb06291"><rect x="0" width="12" y="0" height="15"/></clipPath><clipPath id="807637b864"><path d="M 663.148438 87.164062 L 674.542969 87.164062 L 674.542969 102 L 663.148438 102 Z M 663.148438 87.164062 " clip-rule="nonzero"/></clipPath><clipPath id="a7b04f8601"><path d="M 674.40625 101.796875 L 663.335938 101.796875 L 663.335938 87.300781 L 674.421875 87.300781 Z M 674.40625 101.796875 " clip-rule="nonzero"/></clipPath><clipPath id="80c287d156"><path d="M 0.300781 0.289062 L 11.542969 0.289062 L 11.542969 14.886719 L 0.300781 14.886719 Z M 0.300781 0.289062 " clip-rule="nonzero"/></clipPath><clipPath id="d2398d771f"><path d="M 11.40625 14.796875 L 0.335938 14.796875 L 0.335938 0.300781 L 11.421875 0.300781 Z M 11.40625 14.796875 " clip-rule="nonzero"/></clipPath><clipPath id="d3aac0ea50"><rect x="0" width="12" y="0" height="15"/></clipPath><clipPath id="53a5208860"><rect x="0" width="682" y="0" height="128"/></clipPath></defs><g transform="matrix(1, 0, 0, 1, 34, 30)"><g clip-path="url(#53a5208860)"><g clip-path="url(#05bc3e5bf8)"><g clip-path="url(#55409b7cab)"><g transform="matrix(1, 0, 0, 1, 54, 95)"><g clip-path="url(#56ad01adaf)"><g clip-path="url(#2480cb8120)"><g clip-path="url(#cb1ff4d0bf)"><rect x="-361" width="1296" fill="#ffffff" y="-193.249998" height="323.999991" fill-opacity="1"/></g></g></g></g></g></g><g clip-path="url(#91992a7618)"><g clip-path="url(#42c46aa0d7)"><g transform="matrix(1, 0, 0, 1, 88, 68)"><g clip-path="url(#2b62982dc0)"><g clip-path="url(#8f2947a6c1)"><g clip-path="url(#b86a531a8b)"><rect x="-395" width="1296" fill="#ffffff" y="-166.249998" height="323.999991" fill-opacity="1"/></g></g></g></g></g></g><g clip-path="url(#2465151b66)"><g clip-path="url(#37588318be)"><g transform="matrix(1, 0, 0, 1, 54, 95)"><g clip-path="url(#45c764f827)"><g clip-path="url(#ed2bb2cbb0)"><g clip-path="url(#3a2e716065)"><rect x="-361" width="1296" fill="#171615" y="-193.249998" height="323.999991" fill-opacity="1"/></g></g></g></g></g></g><g clip-path="url(#98764c0f20)"><g clip-path="url(#3f3eded19c)"><g transform="matrix(1, 0, 0, 1, 88, 68)"><g clip-path="url(#a494479a1f)"><g clip-path="url(#4a78375f3c)"><g clip-path="url(#f83f18b3ea)"><rect x="-395" width="1296" fill="#171615" y="-166.249998" height="323.999991" fill-opacity="1"/></g></g></g></g></g></g><g clip-path="url(#8cbbc54601)"><g clip-path="url(#1a21b84b8e)"><g transform="matrix(1, 0, 0, 1, 10, 9)"><g clip-path="url(#0f80a5f06a)"><g clip-path="url(#f7e6777755)"><g clip-path="url(#7688e4d00a)"><rect x="-317" width="1296" fill="#e63f52" y="-107.249998" height="323.999991" fill-opacity="1"/></g></g></g></g></g></g><g clip-path="url(#3505611140)"><g clip-path="url(#1b293cf273)"><g transform="matrix(1, 0, 0, 1, 216, 87)"><g clip-path="url(#1c9e6e92ee)"><g clip-path="url(#76ff3c3930)"><g clip-path="url(#86437c2f7d)"><rect x="-523" width="1296" fill="#e63f52" y="-185.249998" height="323.999991" fill-opacity="1"/></g></g></g></g></g></g><g clip-path="url(#c171f6059f)"><g clip-path="url(#3684255989)"><g transform="matrix(1, 0, 0, 1, 187, 87)"><g clip-path="url(#d1076e9667)"><g clip-path="url(#0d668434b8)"><g clip-path="url(#e4cad5425d)"><rect x="-494" width="1296" fill="#e63f52" y="-185.249998" height="323.999991" fill-opacity="1"/></g></g></g></g></g></g><g clip-path="url(#a1d3b19039)"><g transform="matrix(1, 0, 0, 1, 158, 87)"><g clip-path="url(#f573eeff8b)"><g clip-path="url(#17dae06396)"><rect x="-465" width="1296" fill="#e63f52" y="-185.249998" height="323.999991" fill-opacity="1"/></g></g></g></g><g clip-path="url(#58bffe93b7)"><g clip-path="url(#87ee7adfe0)"><g transform="matrix(1, 0, 0, 1, 158, 23)"><g clip-path="url(#c73c9d176d)"><g clip-path="url(#2d27a08baa)"><g clip-path="url(#8363fda4a3)"><rect x="-465" width="1296" fill="#e63f52" y="-121.249998" height="323.999991" fill-opacity="1"/></g></g></g></g></g></g><g clip-path="url(#20c2ea6131)"><g clip-path="url(#20b76daf8a)"><g transform="matrix(1, 0, 0, 1, 257, 23)"><g clip-path="url(#24cdd3ddd4)"><g clip-path="url(#0fc4ff2dda)"><g clip-path="url(#dbf0438627)"><rect x="-564" width="1296" fill="#e63f52" y="-121.249998" height="323.999991" fill-opacity="1"/></g></g></g></g></g></g><g clip-path="url(#75a463227f)"><g transform="matrix(1, 0, 0, 1, 257, 87)"><g clip-path="url(#fc5c7f9e2c)"><g clip-path="url(#5e121e5dc8)"><rect x="-564" width="1296" fill="#e63f52" y="-185.249998" height="323.999991" fill-opacity="1"/></g></g></g></g><g clip-path="url(#e8a8ee1551)"><g transform="matrix(1, 0, 0, 1, 288, 87)"><g clip-path="url(#5db782b667)"><g clip-path="url(#1a439ec522)"><rect x="-595" width="1296" fill="#e63f52" y="-185.249998" height="323.999991" fill-opacity="1"/></g></g></g></g><g clip-path="url(#33406493e8)"><g clip-path="url(#e7cff8b89b)"><g transform="matrix(1, 0, 0, 1, 348, 71)"><g clip-path="url(#329ae4f3ab)"><g clip-path="url(#be2b29b373)"><g clip-path="url(#822d138fd1)"><rect x="-655" width="1296" fill="#e63f52" y="-169.249998" height="323.999991" fill-opacity="1"/></g></g></g></g></g></g><g clip-path="url(#ebcb9fc007)"><g clip-path="url(#c0bb69c22e)"><g transform="matrix(1, 0, 0, 1, 327, 23)"><g clip-path="url(#32192885d4)"><g clip-path="url(#91c53ddc60)"><g clip-path="url(#45cb4fd77a)"><rect x="-634" width="1296" fill="#e63f52" y="-121.249998" height="323.999991" fill-opacity="1"/></g></g></g></g></g></g><g clip-path="url(#2135fac7c0)"><g clip-path="url(#d6299b54b8)"><g transform="matrix(1, 0, 0, 1, 348, 71)"><g clip-path="url(#0b0f67fb46)"><g clip-path="url(#c1185c7f8d)"><g clip-path="url(#68d713343d)"><rect x="-655" width="1296" fill="#e63f52" y="-169.249998" height="323.999991" fill-opacity="1"/></g></g></g></g></g></g><g clip-path="url(#43981fdf80)"><g clip-path="url(#089c00080c)"><g transform="matrix(1, 0, 0, 1, 327, 23)"><g clip-path="url(#c39cc524af)"><g clip-path="url(#5ded6fbdbd)"><g clip-path="url(#11edf69377)"><rect x="-634" width="1296" fill="#e63f52" y="-121.249998" height="323.999991" fill-opacity="1"/></g></g></g></g></g></g><g clip-path="url(#45b39b29e8)"><g clip-path="url(#b4754e7d87)"><g transform="matrix(1, 0, 0, 1, 327, 85)"><g clip-path="url(#3f934f03bf)"><g clip-path="url(#3e358b4f74)"><g clip-path="url(#0d99d38bb7)"><rect x="-634" width="1296" fill="#e63f52" y="-183.249998" height="323.999991" fill-opacity="1"/></g></g></g></g></g></g><g clip-path="url(#bac6f1ac62)"><g transform="matrix(1, 0, 0, 1, 397, 87)"><g clip-path="url(#b728cdff70)"><g clip-path="url(#301e7b7936)"><rect x="-704" width="1296" fill="#e63f52" y="-185.249998" height="323.999991" fill-opacity="1"/></g></g></g></g><g clip-path="url(#356e78df3d)"><g transform="matrix(1, 0, 0, 1, 428, 87)"><g clip-path="url(#3deb2cb1fc)"><g clip-path="url(#74c7e0964d)"><rect x="-735" width="1296" fill="#e63f52" y="-185.249998" height="323.999991" fill-opacity="1"/></g></g></g></g><g clip-path="url(#dd09ca053c)"><g transform="matrix(1, 0, 0, 1, 397, 87)"><g clip-path="url(#7cd7d163fb)"><g clip-path="url(#67436e2ecf)"><rect x="-704" width="1296" fill="#e63f52" y="-185.249998" height="323.999991" fill-opacity="1"/></g></g></g></g><g clip-path="url(#a516ce0d28)"><g transform="matrix(1, 0, 0, 1, 428, 87)"><g clip-path="url(#f7f868c328)"><g clip-path="url(#f1fa2810bf)"><rect x="-735" width="1296" fill="#e63f52" y="-185.249998" height="323.999991" fill-opacity="1"/></g></g></g></g><g clip-path="url(#df7e65cbe5)"><g clip-path="url(#c7572122b0)"><g transform="matrix(1, 0, 0, 1, 397, 23)"><g clip-path="url(#7815627ac5)"><g clip-path="url(#acd68e3152)"><g clip-path="url(#85695a0b0c)"><rect x="-704" width="1296" fill="#e63f52" y="-121.249998" height="323.999991" fill-opacity="1"/></g></g></g></g></g></g><g clip-path="url(#a117277b02)"><g clip-path="url(#4d3b161adb)"><g transform="matrix(1, 0, 0, 1, 467, 23)"><g clip-path="url(#be7a331bf4)"><g clip-path="url(#03fab1869f)"><g clip-path="url(#c61ed2daf7)"><rect x="-774" width="1296" fill="#e63f52" y="-121.249998" height="323.999991" fill-opacity="1"/></g></g></g></g></g></g><g clip-path="url(#a7639048ea)"><g clip-path="url(#b0cb9cf4ed)"><g transform="matrix(1, 0, 0, 1, 467, 86)"><g clip-path="url(#188f9cd11b)"><g clip-path="url(#fb8e61dc45)"><g clip-path="url(#2444eac021)"><rect x="-774" width="1296" fill="#e63f52" y="-184.249998" height="323.999991" fill-opacity="1"/></g></g></g></g></g></g><g clip-path="url(#3d59bac208)"><g transform="matrix(1, 0, 0, 1, 539, 87)"><g clip-path="url(#e579573c7a)"><g clip-path="url(#cae7d420f0)"><rect x="-846" width="1296" fill="#e63f52" y="-185.249998" height="323.999991" fill-opacity="1"/></g></g></g></g><g clip-path="url(#339bc06b91)"><g transform="matrix(1, 0, 0, 1, 524, 25)"><g clip-path="url(#879dbf04b7)"><g clip-path="url(#6aac4fc2bd)"><rect x="-831" width="1296" fill="#e63f52" y="-123.249998" height="323.999991" fill-opacity="1"/></g></g></g></g><g clip-path="url(#ee876561ce)"><g transform="matrix(1, 0, 0, 1, 591, 87)"><g clip-path="url(#7cb9e0a8ee)"><g clip-path="url(#100817b42a)"><rect x="-898" width="1296" fill="#e63f52" y="-185.249998" height="323.999991" fill-opacity="1"/></g></g></g></g><g clip-path="url(#ee46e54bc5)"><g transform="matrix(1, 0, 0, 1, 591, 25)"><g clip-path="url(#02bcbd51c8)"><g clip-path="url(#cd1cc36af8)"><rect x="-898" width="1296" fill="#e63f52" y="-123.249998" height="323.999991" fill-opacity="1"/></g></g></g></g><g clip-path="url(#c7d5edd045)"><g clip-path="url(#fc98c7f82f)"><g transform="matrix(1, 0, 0, 1, 632, 23)"><g clip-path="url(#b2d274ac9f)"><g clip-path="url(#e44cb6e5ab)"><g clip-path="url(#fdf696e4be)"><rect x="-939" width="1296" fill="#e63f52" y="-121.249998" height="323.999991" fill-opacity="1"/></g></g></g></g></g></g><g clip-path="url(#6a0b62c17e)"><g transform="matrix(1, 0, 0, 1, 632, 87)"><g clip-path="url(#873cb06291)"><g clip-path="url(#46218d093d)"><rect x="-939" width="1296" fill="#e63f52" y="-185.249998" height="323.999991" fill-opacity="1"/></g></g></g></g><g clip-path="url(#807637b864)"><g clip-path="url(#a7b04f8601)"><g transform="matrix(1, 0, 0, 1, 663, 87)"><g clip-path="url(#d3aac0ea50)"><g clip-path="url(#80c287d156)"><g clip-path="url(#d2398d771f)"><rect x="-970" width="1296" fill="#e63f52" y="-185.249998" height="323.999991" fill-opacity="1"/></g></g></g></g></g></g></g></g></svg>